<svg width="155" height="168" viewBox="0 0 155 168" fill="black" xmlns="http://www.w3.org/2000/svg">
<path d="M88.5287 29.1694C51.815 29.1721 22.0632 55.8204 22.0603 88.7038C22.0632 121.59 51.8153 148.238 88.5287 148.241C125.245 148.238 154.997 121.59 155 88.7038C154.997 55.8201 125.245 29.1721 88.5287 29.1694ZM49.4491 53.7011C53.1822 50.3604 57.4471 47.4962 62.1106 45.219C59.643 48.604 57.4903 52.4155 55.6931 56.5872H46.5199C47.4636 55.5986 48.4223 54.6205 49.4491 53.7011ZM40.0382 64.9502H52.7554C50.9988 71.0139 49.9627 77.6122 49.6411 84.5209H33.5001C34.1617 77.4711 36.4319 70.8423 40.0382 64.9502ZM40.044 112.46C36.4319 106.565 34.1617 99.9362 33.4997 92.8838H49.5759C49.8972 99.8092 50.9859 106.391 52.7488 112.46H40.044ZM49.4491 123.706C48.4226 122.787 47.4639 121.812 46.5235 120.823H55.6967C56.9987 123.848 58.474 126.692 60.1254 129.313C60.7658 130.321 61.4494 131.266 62.1389 132.205C57.4592 129.925 53.1913 127.058 49.4491 123.706ZM83.8618 137.994C83.398 137.961 82.9306 137.942 82.4668 137.895C80.9454 137.335 79.4328 136.595 77.9267 135.59C73.4086 132.584 69.1188 127.468 65.7975 120.823H83.8618V137.994ZM83.8618 112.46H62.451C60.524 106.554 59.3305 99.931 58.9777 92.8838H83.8618V112.46ZM83.8618 84.5209H58.9095C59.2623 77.4767 60.4995 70.8564 62.4198 64.9502H83.8618V84.5209ZM83.8618 56.5876H65.8221C66.5892 55.0529 67.39 53.5767 68.256 52.2107C71.1139 47.6704 74.4633 44.1333 77.9267 41.8177C79.4331 40.8146 80.9454 40.078 82.4639 39.5182C82.9277 39.4713 83.398 39.4519 83.8618 39.4158V56.5876ZM137.022 64.9502C140.629 70.8423 142.899 77.4711 143.56 84.5209H127.481C127.16 77.5984 126.071 71.0198 124.308 64.9502H137.022ZM127.611 53.7011C128.638 54.6205 129.597 55.5986 130.54 56.5876H121.361C120.062 53.5626 118.583 50.7177 116.929 48.0944C116.292 47.089 115.605 46.1443 114.922 45.2023C119.595 47.4847 123.866 50.3519 127.611 53.7011ZM93.1955 39.4158C93.6593 39.4519 94.1293 39.4713 94.5935 39.5182C96.1087 40.078 97.6246 40.8146 99.1302 41.8177C103.652 44.823 107.939 49.945 111.263 56.5876H93.1955V39.4158ZM93.1955 64.9502H114.609C116.533 70.8561 117.727 77.4793 118.079 84.5209H93.1955V64.9502ZM108.804 125.197C105.943 129.737 102.594 133.277 99.1302 135.59C97.6246 136.595 96.1086 137.335 94.5902 137.895C94.1264 137.942 93.6593 137.961 93.1955 137.994V120.823H111.239C110.468 122.354 109.671 123.834 108.804 125.197ZM93.1955 112.46V92.8838H118.147C117.795 99.931 116.558 106.554 114.637 112.46H93.1955ZM127.611 123.706C123.878 127.052 119.614 129.914 114.95 132.188C117.414 128.806 119.567 124.994 121.364 120.823H130.536C129.597 121.812 128.638 122.787 127.611 123.706ZM137.016 112.46H124.302C126.062 106.399 127.095 99.8007 127.416 92.8838H143.56C142.899 99.9362 140.629 106.565 137.016 112.46Z" fill="white"/>
<path d="M130.858 150.61C117.637 157.861 103.043 161.308 88.609 161.308C61.3249 161.305 34.7032 148.981 19.4128 126.618C11.3159 114.776 7.46862 101.704 7.46862 88.7756C7.47191 64.3352 21.2314 40.4989 46.202 26.798L42.3019 21.0942C15.0398 36.0502 -0.00622588 62.1053 1.93258e-06 88.7756C-0.00329515 102.892 4.21513 117.2 13.0447 130.111C29.7393 154.524 58.8323 168.003 88.609 168C104.369 168 120.343 164.224 134.761 156.316L130.858 150.612V150.61Z" fill="white"/>
<path d="M73.319 22.9089H108.263C111.86 22.9089 114.779 21.8206 114.779 18.5934C114.779 15.3716 107.892 12.2498 104.295 12.2498H97.077L82.3867 0.404792C81.6507 -0.323646 78.7343 0.152792 77.8499 0.155745C76.7582 0.161323 76.9964 1.72353 77.4169 2.63211L81.7097 12.2498H71.4294L65.7914 4.22778C64.8016 3.26112 63.2519 2.93431 61.8884 3.4078C60.5212 3.88161 59.6215 5.05892 59.6215 6.36913L59.5288 12.2498V13.9866C59.5284 18.9143 66.1409 22.9089 73.319 22.9089Z" fill="white"/>
</svg>
