<?xml version="1.0" standalone="no"?>
<!DOCTYPE svg PUBLIC "-//W3C//DTD SVG 20010904//EN"
 "http://www.w3.org/TR/2001/REC-SVG-20010904/DTD/svg10.dtd">
<svg version="1.0" xmlns="http://www.w3.org/2000/svg"
 width="384.000000pt" height="384.000000pt" viewBox="0 0 384.000000 384.000000"
 preserveAspectRatio="xMidYMid meet">
<metadata>
Created by potrace 1.14, written by Peter Selinger 2001-2017
</metadata>
<g transform="translate(0.000000,384.000000) scale(0.100000,-0.100000)"
fill="#000000" stroke="none">
<path d="M1916 3824 c-10 -25 -7 -36 7 -28 9 6 9 4 -1 -8 -11 -14 -10 -18 5
-27 14 -8 15 -11 3 -11 -12 0 -11 -3 3 -11 9 -5 17 -16 17 -24 0 -18 52 -128
65 -137 6 -4 2 -8 -7 -8 -10 0 -18 -6 -18 -12 0 -9 -4 -8 -10 2 -8 12 -10 12
-10 1 0 -11 -3 -11 -15 -1 -12 10 -15 10 -15 -1 0 -12 -2 -12 -9 0 -5 8 -14
10 -22 5 -18 -11 -49 -11 -71 -1 -12 5 -18 3 -18 -5 0 -9 -3 -9 -10 2 -8 13
-10 13 -10 1 0 -9 -15 2 -35 23 -19 21 -35 43 -35 48 0 5 -7 16 -15 25 -8 8
-13 19 -10 24 4 5 -1 9 -9 9 -8 0 -18 9 -21 20 -3 11 -11 20 -16 20 -6 0 -7 5
-4 10 3 6 -3 10 -14 10 -12 0 -20 3 -20 8 4 21 -3 24 -17 6 -8 -10 -12 -13 -9
-6 10 18 -26 12 -43 -8 -12 -13 -13 -13 -6 0 7 13 5 13 -9 1 -9 -7 -15 -17
-12 -21 3 -4 -2 -11 -11 -14 -12 -5 -13 -10 -5 -19 8 -10 7 -17 -2 -27 -9 -10
-9 -11 1 -6 6 4 12 2 12 -3 0 -6 -4 -11 -8 -11 -10 0 -9 -30 2 -48 4 -7 2 -12
-5 -12 -8 0 -7 -5 2 -17 10 -11 10 -14 2 -9 -15 8 -17 -3 -3 -24 5 -8 5 -19 1
-25 -11 -15 -8 -27 16 -61 12 -17 19 -34 16 -38 -4 -4 1 -4 12 0 15 6 17 4 11
-11 -4 -11 -4 -16 0 -12 4 4 23 -5 42 -20 20 -15 32 -20 28 -12 -4 8 0 5 8 -5
12 -15 16 -16 16 -5 0 12 2 12 10 -1 5 -8 21 -15 37 -16 15 -1 32 -3 36 -3 5
-1 6 -5 3 -9 -2 -4 4 -8 15 -8 10 0 19 5 19 11 0 6 3 7 8 0 9 -13 263 -14 255
-1 -4 5 0 6 8 0 19 -12 90 -13 113 -1 10 5 16 5 13 0 -3 -4 75 -8 173 -8 104
0 176 4 173 9 -4 5 0 5 8 0 17 -10 139 -12 139 -2 0 4 7 4 17 1 12 -5 14 -3 8
8 -7 11 -5 11 10 -1 11 -9 16 -10 11 -2 -4 6 -2 13 3 13 6 1 15 2 20 3 5 0 13
5 18 10 5 5 2 6 -7 2 -8 -4 -4 2 10 14 14 12 19 19 13 15 -7 -3 -13 -1 -13 4
0 6 4 11 9 11 4 0 6 11 3 25 -2 14 -8 25 -13 25 -5 0 -9 7 -9 16 0 8 -4 12
-10 9 -5 -3 -10 1 -10 10 0 9 -4 14 -9 10 -6 -3 -20 5 -32 17 -12 13 -19 17
-14 10 6 -11 3 -11 -16 0 -13 7 -26 15 -29 18 -3 3 -14 6 -25 6 -12 0 -19 6
-17 14 2 10 0 11 -11 2 -10 -9 -17 -9 -27 1 -10 10 -12 8 -6 -8 6 -19 5 -19
-8 -1 -9 11 -20 15 -27 10 -17 -10 -59 -12 -59 -2 0 11 -23 6 -32 -7 -5 -6 -8
-4 -8 5 0 13 -1 13 -10 0 -5 -8 -10 -10 -10 -5 0 6 -10 11 -22 12 -13 1 -29
11 -37 23 -7 11 -17 20 -22 20 -5 0 -22 14 -39 31 -16 18 -30 28 -30 23 0 -5
-10 3 -23 17 -12 15 -26 28 -32 30 -5 2 -9 7 -8 11 2 5 0 7 -5 7 -19 -3 -33 2
-27 11 3 6 -1 10 -9 10 -9 0 -16 5 -16 10 0 6 -7 10 -16 10 -8 0 -12 5 -9 10
3 6 0 10 -7 10 -8 0 -20 9 -28 19 -7 11 -17 18 -22 15 -4 -3 -8 0 -8 5 0 7
-23 11 -54 11 -40 0 -55 -4 -60 -16z"/>
<path d="M1080 3341 c-14 -8 -28 -21 -33 -28 -4 -7 -14 -10 -21 -7 -8 3 -19
-4 -26 -15 -6 -12 -16 -21 -23 -21 -20 0 -78 -46 -69 -55 4 -5 2 -5 -4 -2 -14
8 -56 -21 -49 -34 3 -5 -1 -6 -9 -3 -9 3 -16 1 -16 -5 0 -6 -6 -11 -14 -11 -8
0 -18 -5 -22 -12 -5 -7 -3 -8 6 -3 9 5 11 4 6 -3 -4 -7 -14 -12 -22 -12 -8 0
-14 -4 -14 -10 0 -5 -7 -10 -17 -10 -9 0 -14 -3 -10 -6 7 -7 -26 -42 -35 -37
-5 2 -8 -3 -8 -11 0 -9 -5 -15 -12 -14 -7 2 -12 -4 -13 -12 -1 -8 -6 -14 -13
-12 -7 1 -12 -5 -12 -14 0 -10 -6 -14 -14 -11 -10 4 -13 1 -10 -7 3 -7 -2 -16
-11 -20 -9 -3 -13 -10 -10 -16 4 -6 -1 -7 -12 -3 -10 3 -15 3 -11 -2 4 -4 -4
-19 -18 -32 -14 -12 -22 -23 -19 -23 3 0 0 -6 -7 -14 -7 -8 -17 -11 -22 -8 -5
3 -6 0 -2 -6 4 -7 -4 -23 -18 -37 -15 -14 -26 -30 -26 -34 0 -4 -9 -16 -20
-26 -11 -10 -20 -24 -20 -32 0 -7 -5 -13 -11 -13 -5 0 -7 -4 -4 -10 3 -5 1
-10 -5 -10 -6 0 -9 -3 -7 -7 6 -10 -19 -34 -27 -26 -3 4 -6 1 -6 -5 0 -7 5
-12 12 -12 6 0 2 -8 -8 -17 -10 -10 -20 -24 -22 -32 -2 -8 -11 -21 -20 -29
-12 -9 -13 -12 -2 -7 8 4 6 -1 -4 -9 -14 -11 -15 -16 -6 -16 9 0 7 -5 -6 -15
-10 -8 -15 -15 -11 -15 5 0 2 -7 -7 -15 -8 -8 -13 -24 -11 -35 2 -11 -2 -20
-8 -20 -7 0 -13 -14 -14 -30 -1 -17 -9 -38 -18 -46 -17 -18 -20 -28 -4 -19 13
8 -12 -37 -26 -47 -6 -5 -4 -8 5 -8 9 0 11 -3 5 -8 -5 -4 -12 -18 -14 -32 -1
-14 -6 -27 -10 -30 -3 -3 -6 -14 -6 -25 0 -11 -6 -26 -15 -33 -8 -8 -9 -11 -3
-7 8 4 13 0 13 -9 0 -9 -4 -16 -8 -16 -5 0 -8 -17 -8 -37 1 -22 -5 -44 -14
-51 -8 -8 -10 -11 -4 -8 7 3 11 -4 11 -19 0 -14 -4 -22 -9 -19 -12 8 -6 -29 7
-38 6 -5 5 -8 -2 -8 -10 0 -13 -36 -13 -146 0 -80 4 -143 8 -140 5 3 9 -1 9
-9 0 -8 -4 -12 -9 -9 -4 3 -8 1 -8 -5 0 -5 6 -12 13 -14 8 -4 7 -6 -3 -6 -13
-1 -13 -2 0 -11 13 -9 13 -11 0 -20 -10 -6 -11 -10 -2 -10 6 0 12 -11 12 -24
0 -14 5 -28 10 -31 8 -5 8 -11 0 -20 -8 -9 -7 -14 2 -18 8 -2 13 -21 12 -43 0
-22 4 -42 10 -46 5 -3 11 -21 12 -38 1 -17 8 -39 16 -48 8 -10 9 -13 1 -9 -8
5 -7 -2 2 -20 8 -15 15 -34 15 -40 0 -7 6 -13 13 -13 8 0 7 -4 -3 -10 -12 -7
-12 -10 -1 -10 7 0 11 -6 8 -14 -3 -8 1 -20 9 -26 8 -7 14 -19 14 -26 0 -8 5
-14 10 -14 6 0 10 -9 10 -20 0 -11 4 -20 9 -20 6 0 8 -9 6 -20 -2 -11 0 -18 5
-15 5 3 15 -8 24 -25 9 -19 10 -28 3 -24 -7 4 -2 -3 11 -15 12 -12 20 -26 17
-31 -3 -5 4 -12 16 -15 17 -6 18 -9 8 -16 -11 -6 -10 -9 4 -15 9 -3 14 -10 11
-15 -3 -5 0 -9 5 -9 6 0 11 -7 11 -15 0 -7 8 -19 18 -24 9 -6 14 -11 10 -11
-5 0 1 -9 12 -20 12 -12 18 -26 14 -32 -4 -6 -3 -9 2 -6 5 3 14 0 21 -7 10
-11 10 -15 0 -18 -8 -4 -7 -6 3 -6 20 -1 70 -58 70 -80 0 -14 2 -14 10 -1 8
12 10 10 10 -9 0 -13 3 -21 6 -18 8 8 44 -31 44 -47 0 -6 4 -5 9 2 6 11 10 10
15 -5 4 -10 7 -20 8 -23 0 -3 24 -22 54 -43 30 -21 54 -43 54 -48 0 -5 7 -9
16 -9 8 0 12 -5 9 -10 -3 -6 1 -10 9 -10 9 0 16 -4 16 -10 0 -5 10 -10 23 -10
18 0 19 -2 7 -10 -13 -8 -12 -10 3 -10 9 0 17 -4 17 -10 0 -5 7 -10 16 -10 8
0 12 -4 9 -10 -3 -6 1 -7 9 -4 9 3 16 1 16 -5 0 -6 6 -11 14 -11 8 0 18 -5 22
-12 5 -7 2 -8 -7 -3 -8 5 -11 4 -6 -1 5 -5 16 -9 25 -9 9 0 16 -6 14 -13 -1
-8 1 -11 5 -9 9 5 75 -28 68 -35 -2 -2 6 -5 18 -5 12 -1 23 -7 25 -13 2 -5 8
-10 14 -10 6 0 17 -8 24 -17 13 -17 14 -17 8 2 -5 19 -5 19 9 2 8 -10 19 -19
24 -20 4 -1 7 -5 6 -9 -2 -4 9 -4 23 -2 20 4 25 1 21 -9 -4 -11 0 -13 14 -10
11 3 19 0 19 -6 0 -7 4 -10 9 -6 5 3 12 1 16 -5 4 -6 11 -8 16 -5 5 4 12 -1
15 -9 3 -9 10 -16 16 -16 5 0 6 4 3 10 -3 6 1 7 9 4 9 -3 16 -9 16 -13 0 -4 7
-8 15 -9 8 -1 22 -3 30 -4 8 -1 15 -5 15 -10 0 -5 4 -7 9 -4 5 3 14 0 20 -8 6
-7 27 -12 45 -11 19 1 33 -2 30 -7 -3 -4 -2 -9 3 -9 38 -6 61 -9 80 -10 13 -1
20 -6 17 -11 -4 -6 2 -7 15 -3 12 4 21 2 21 -4 0 -6 7 -8 15 -5 8 4 22 1 29
-5 10 -9 16 -9 21 -1 5 8 11 8 20 0 8 -7 20 -8 26 -4 7 4 9 3 6 -3 -4 -7 6
-11 26 -12 56 -1 72 -4 82 -11 17 -13 467 -11 459 2 -5 7 -2 8 6 3 18 -11 80
-14 74 -3 -3 4 -2 8 3 9 4 0 28 3 53 5 25 3 53 5 63 5 9 0 15 4 13 8 -3 4 13
7 35 6 29 -1 39 3 39 14 0 13 2 13 9 2 6 -9 10 -10 16 -2 5 9 11 9 23 -1 13
-11 14 -11 7 1 -6 11 -4 13 8 8 10 -3 17 -2 17 4 0 6 5 7 10 4 6 -3 10 0 10 7
0 9 3 9 10 -2 9 -14 14 -7 11 13 -1 5 3 6 9 2 6 -4 18 -1 27 7 15 11 16 11 10
-7 l-7 -20 15 20 c9 11 24 19 35 17 10 -2 21 2 25 8 3 6 11 8 16 5 5 -4 9 -2
9 4 0 5 11 8 25 7 13 -2 22 0 20 5 -5 7 52 25 67 21 4 -1 5 5 2 13 -4 8 -1 15
5 15 6 0 11 -5 11 -11 0 -8 4 -9 13 0 8 6 17 7 21 3 4 -4 6 -1 4 7 -2 7 6 15
16 17 10 1 22 8 26 14 4 7 9 11 11 9 2 -1 20 3 40 10 33 11 42 29 29 61 -1 3
-2 8 -1 12 0 5 -5 7 -12 5 -6 -1 -11 4 -10 11 2 6 -2 12 -7 12 -6 0 -10 6 -10
14 0 7 -8 20 -17 27 -14 12 -16 12 -9 -1 4 -8 0 -6 -8 4 -11 13 -16 15 -16 6
0 -7 -3 -11 -6 -7 -4 3 -13 -1 -21 -9 -9 -8 -22 -13 -29 -10 -8 3 -14 0 -14
-8 0 -7 -7 -13 -15 -14 -8 -1 -22 -3 -30 -4 -8 -1 -12 -5 -9 -10 5 -7 -10 -12
-20 -5 -2 1 -14 -7 -27 -18 -14 -13 -20 -14 -15 -5 4 8 0 6 -8 -4 -9 -11 -16
-14 -16 -8 0 7 -5 12 -11 12 -5 0 -7 -4 -4 -10 3 -5 1 -10 -4 -10 -20 0 -26
-2 -46 -13 -20 -12 -27 -14 -58 -16 -12 -1 -16 -6 -11 -13 5 -10 4 -10 -6 -1
-8 7 -19 8 -29 3 -28 -15 -56 -23 -70 -21 -7 1 -11 -2 -8 -6 3 -5 -9 -8 -26
-8 -18 1 -35 -3 -39 -9 -6 -9 -22 -11 -106 -15 -19 0 -31 -5 -27 -11 4 -7 -3
-7 -20 0 -14 5 -24 6 -21 1 3 -4 -16 -8 -42 -7 -26 1 -55 -2 -64 -6 -10 -5
-19 -4 -23 2 -4 6 -12 7 -18 3 -20 -13 -77 -12 -77 0 0 9 -2 9 -8 1 -9 -14
-45 -14 -54 0 -5 8 -8 7 -8 -1 0 -7 -7 -10 -17 -6 -12 5 -14 3 -8 -8 5 -9 1
-8 -11 3 -13 11 -24 14 -34 8 -9 -6 -17 -5 -22 3 -6 9 -8 9 -8 -1 0 -9 -5 -10
-19 -3 -10 6 -21 8 -24 5 -3 -3 -15 0 -27 6 -13 7 -20 8 -16 2 3 -6 2 -13 -4
-17 -5 -3 -10 -2 -10 3 0 5 -6 9 -12 10 -7 1 -26 4 -43 6 -16 2 -38 7 -48 11
-9 4 -26 5 -37 2 -11 -3 -21 1 -24 10 -5 12 -9 13 -21 3 -10 -9 -15 -9 -15 -1
0 6 -3 10 -7 10 -29 -5 -53 2 -47 14 5 8 2 8 -9 -2 -13 -11 -17 -11 -17 -1 0
8 -3 10 -7 7 -3 -4 -12 -2 -20 4 -9 8 -13 8 -13 1 0 -6 -7 -9 -15 -6 -8 4 -12
11 -8 17 4 6 -2 8 -15 5 -12 -4 -22 -2 -22 3 0 4 -7 6 -15 3 -8 -4 -15 -1 -15
6 0 6 -4 9 -9 5 -5 -3 -12 -1 -16 4 -3 5 -14 8 -25 6 -12 -2 -20 2 -20 10 0 9
-9 12 -30 10 -18 -3 -28 0 -25 5 4 6 -1 10 -9 10 -9 0 -16 4 -16 9 0 6 -9 8
-20 6 -11 -2 -18 0 -15 6 6 8 -9 13 -29 10 -4 -1 -15 7 -25 17 -9 10 -24 16
-33 14 -10 -2 -18 1 -18 7 0 5 -18 17 -40 27 -21 10 -37 21 -34 26 3 4 -2 5
-10 2 -9 -3 -16 -1 -16 5 0 6 -6 11 -14 11 -8 0 -16 5 -18 11 -2 5 -12 12 -23
13 -11 2 -19 9 -17 15 1 6 -4 11 -11 11 -20 0 -58 35 -49 45 4 5 1 5 -6 1 -6
-4 -19 -1 -27 6 -8 7 -28 24 -45 38 -18 14 -41 34 -53 45 -12 11 -25 19 -29
18 -4 -2 -10 6 -13 17 -4 11 -11 20 -16 20 -6 0 -7 5 -3 12 5 8 2 9 -10 5 -14
-6 -17 -3 -12 8 3 9 2 13 -4 10 -6 -3 -10 -1 -10 5 0 6 -5 8 -10 5 -6 -3 -10
1 -10 9 0 8 -9 20 -20 26 -11 6 -20 15 -20 21 0 15 -47 59 -54 51 -4 -3 -4 1
0 11 4 11 0 19 -10 23 -9 3 -16 12 -16 20 0 8 -4 14 -10 14 -5 0 -10 7 -10 15
0 7 -8 18 -17 24 -10 5 -18 13 -18 18 0 4 -4 7 -9 5 -5 -2 -6 4 -3 11 3 8 -3
24 -14 35 -10 12 -19 26 -19 32 0 6 -4 9 -9 5 -6 -3 -8 4 -6 15 2 11 0 20 -5
20 -5 0 -12 10 -16 23 -4 12 -11 25 -16 28 -6 4 -11 18 -11 32 -1 14 -5 23 -8
21 -4 -2 -10 8 -13 21 -4 16 -11 23 -18 19 -7 -4 -8 -3 -4 4 4 7 -2 32 -13 57
-12 26 -15 43 -8 38 8 -4 7 -1 -1 10 -8 9 -11 21 -7 27 3 5 0 13 -8 16 -8 3
-14 13 -12 22 1 9 -3 23 -9 31 -9 12 -8 13 4 7 9 -4 8 -2 -2 7 -10 8 -15 17
-12 20 3 3 0 15 -6 27 -7 12 -8 20 -3 17 5 -3 7 7 5 24 -2 16 -8 29 -12 29 -4
0 -7 16 -6 36 1 20 -3 38 -7 41 -5 3 -3 9 4 14 8 5 9 9 3 9 -5 0 -9 15 -8 32
1 18 -3 36 -9 40 -9 6 -9 8 1 8 6 0 12 5 12 11 0 5 -4 8 -9 5 -10 -7 -9 20 2
30 12 12 8 26 -6 18 -9 -6 -9 -5 0 8 7 8 10 18 6 22 -4 4 -8 20 -8 36 -1 22 2
26 11 19 9 -8 11 -5 7 10 -3 12 -10 18 -17 15 -6 -3 -2 2 8 10 11 9 14 16 8
16 -9 0 -10 6 -5 18 5 9 8 26 8 37 -1 11 3 26 8 33 6 8 5 12 -3 12 -9 0 -9 4
1 17 12 14 12 16 -1 9 -8 -4 -6 0 4 8 15 12 16 16 5 16 -12 0 -12 2 1 10 8 5
11 10 6 10 -5 0 -3 6 3 14 9 11 9 15 -1 19 -11 4 -10 6 0 6 7 1 10 6 7 11 -3
6 -2 10 3 10 5 0 8 11 7 25 -2 14 1 25 6 25 6 0 7 5 4 10 -3 6 0 10 7 10 9 0
9 3 -2 10 -9 6 -10 10 -3 10 6 0 15 15 18 33 4 17 12 38 17 45 6 6 8 12 4 12
-4 0 0 10 9 23 8 13 12 27 8 30 -3 4 -1 7 5 7 7 0 11 3 11 8 -3 19 2 33 10 27
5 -3 13 0 17 6 4 8 3 9 -4 5 -7 -4 -12 -3 -12 3 0 5 5 13 10 16 6 4 8 10 5 15
-3 4 2 10 10 14 9 3 12 12 8 22 -4 11 -2 15 4 11 6 -4 14 5 18 21 3 15 16 35
28 45 12 10 15 16 7 12 -10 -4 -9 -2 2 8 10 8 15 17 11 20 -3 4 -1 7 5 7 6 0
9 7 5 17 -4 10 -2 14 4 10 6 -4 14 0 17 9 3 8 11 12 17 8 8 -4 9 -3 5 4 -4 7
-2 12 5 12 8 0 8 4 -1 16 -8 8 -9 14 -4 13 23 -4 33 2 27 18 -4 9 -2 14 3 11
5 -3 15 0 22 8 7 8 10 14 7 14 -3 0 4 9 15 20 11 11 20 25 20 31 0 5 5 7 10 4
9 -6 14 7 11 27 0 4 7 4 16 1 13 -5 15 -2 9 12 -4 11 -4 16 0 13 11 -12 46 12
40 28 -3 7 -2 13 2 13 20 -3 31 3 37 22 4 11 9 18 12 15 3 -2 15 6 28 19 12
14 25 22 28 18 4 -3 7 1 7 11 0 9 4 15 9 11 6 -3 14 3 20 12 6 10 11 15 11 11
0 -4 16 8 36 27 20 19 41 35 47 35 6 0 24 12 40 27 24 23 27 25 22 8 -4 -14
-2 -12 8 5 9 14 18 23 20 20 3 -3 18 6 33 20 16 14 22 17 14 6 -14 -18 -14
-18 7 -5 21 12 21 15 6 31 -9 10 -13 18 -10 18 4 0 -2 9 -13 20 -11 11 -20 25
-20 31 0 5 -5 7 -10 4 -6 -4 -10 -3 -9 2 6 36 -16 47 -51 24z"/>
<path d="M2026 3169 c7 -12 -23 -18 -35 -6 -6 6 -11 7 -11 2 0 -6 -24 -10 -53
-10 -34 0 -57 -5 -65 -15 -12 -13 -13 -13 -6 0 7 13 5 13 -8 2 -13 -10 -17
-10 -21 0 -4 10 -6 10 -6 1 -1 -7 -14 -13 -30 -13 -17 0 -33 -5 -36 -11 -4 -6
-13 -8 -21 -5 -8 3 -14 0 -14 -7 0 -8 -4 -6 -10 3 -5 8 -10 10 -10 4 0 -7 -7
-15 -16 -18 -10 -4 -13 -2 -8 7 5 9 4 9 -7 0 -7 -7 -21 -13 -31 -13 -10 0 -18
-5 -18 -10 0 -6 -3 -9 -7 -8 -14 4 -57 -14 -77 -31 -15 -13 -18 -13 -11 -1 8
13 6 13 -8 2 -9 -8 -20 -11 -26 -8 -5 3 -11 -1 -15 -9 -3 -8 -12 -15 -20 -15
-24 0 -77 -36 -68 -46 4 -4 -1 -3 -10 4 -14 11 -18 10 -28 -7 -6 -12 -15 -20
-20 -18 -5 1 -16 -7 -25 -18 -9 -11 -14 -13 -10 -5 4 8 -1 6 -10 -5 -9 -11
-18 -19 -20 -17 -13 6 -25 1 -19 -10 5 -7 0 -9 -14 -6 -12 3 -21 3 -20 -1 2
-21 -4 -30 -17 -24 -10 3 -15 0 -13 -8 2 -7 -4 -14 -12 -14 -8 0 -14 -6 -13
-13 2 -7 -4 -12 -12 -12 -8 0 -15 -5 -15 -11 0 -6 -7 -8 -16 -5 -8 3 -12 2 -9
-4 3 -6 -1 -13 -9 -16 -9 -3 -13 -10 -10 -15 3 -5 -2 -9 -10 -9 -8 0 -20 -9
-26 -20 -6 -11 -15 -18 -21 -15 -5 4 -9 -3 -9 -14 0 -12 -7 -21 -16 -21 -8 0
-12 -4 -9 -10 6 -9 -8 -15 -29 -11 -5 1 -3 -5 4 -14 7 -9 9 -15 4 -14 -21 4
-35 -2 -29 -11 3 -6 -1 -13 -9 -16 -9 -3 -13 -10 -10 -15 3 -5 -2 -12 -10 -15
-9 -3 -16 -13 -16 -21 0 -8 -4 -12 -9 -9 -5 3 -12 -1 -15 -10 -4 -10 -2 -13 7
-9 6 4 1 -3 -13 -14 -14 -11 -21 -21 -16 -21 6 0 1 -7 -10 -16 -10 -8 -12 -13
-4 -9 11 5 10 2 -2 -7 -9 -8 -20 -26 -23 -41 -4 -15 -11 -27 -16 -27 -5 0 -9
-9 -9 -19 0 -11 -6 -26 -13 -33 -16 -16 -33 -52 -36 -79 0 -5 -5 -8 -10 -5 -4
3 -7 -6 -5 -19 1 -14 -2 -25 -8 -25 -6 0 -8 -7 -4 -15 3 -8 2 -15 -3 -15 -4 0
-8 -7 -9 -15 -1 -8 -3 -22 -4 -30 -1 -8 -5 -15 -10 -15 -4 0 -8 -5 -8 -11 0
-5 5 -7 10 -4 6 3 10 1 10 -4 0 -6 -5 -11 -11 -11 -6 0 -9 -7 -5 -15 3 -8 2
-15 -2 -15 -4 0 -9 -17 -10 -37 -2 -21 -7 -42 -12 -47 -15 -15 -12 -26 8 -26
16 -1 16 -1 -1 -11 -9 -5 -17 -17 -17 -25 0 -8 5 -12 10 -9 6 3 10 1 10 -4 0
-6 -4 -11 -9 -11 -5 0 -8 -45 -8 -100 1 -55 6 -100 11 -100 6 0 5 -5 -2 -12
-9 -9 -7 -15 6 -25 9 -8 11 -12 5 -8 -14 7 -18 -11 -5 -19 5 -3 8 -21 7 -41
-2 -26 1 -35 14 -36 10 0 11 -2 4 -6 -7 -2 -13 -9 -13 -14 0 -6 4 -8 8 -5 4 3
7 -8 6 -25 -1 -16 2 -29 7 -29 5 0 9 -11 9 -24 0 -14 5 -28 10 -31 6 -4 8 -11
5 -16 -4 -5 0 -9 7 -9 11 0 10 -2 0 -9 -11 -6 -10 -10 3 -15 10 -3 15 -12 12
-20 -3 -8 -1 -16 5 -18 10 -4 17 -23 20 -55 1 -7 5 -13 10 -13 4 0 8 -7 8 -15
0 -8 5 -15 10 -15 6 0 10 -9 10 -20 0 -11 5 -20 10 -20 6 0 10 -7 10 -15 0 -9
7 -18 16 -22 8 -3 13 -12 10 -19 -3 -7 3 -18 12 -23 9 -6 14 -11 9 -11 -4 0 6
-14 23 -31 16 -18 30 -38 30 -46 0 -8 4 -11 10 -8 5 3 10 0 10 -8 0 -8 10 -22
23 -31 12 -9 16 -14 8 -10 -9 5 -12 3 -7 -4 4 -7 12 -12 18 -12 11 0 68 -60
68 -72 0 -5 7 -8 16 -8 8 0 12 -4 9 -10 -3 -5 -1 -10 5 -10 6 0 16 -5 23 -10
7 -6 21 -18 32 -26 11 -9 14 -12 6 -8 -9 5 -12 3 -7 -4 4 -7 14 -12 22 -12 8
0 13 -4 9 -9 -3 -6 3 -8 15 -6 11 2 19 -1 17 -6 -1 -5 11 -17 28 -27 16 -9 38
-25 49 -34 11 -10 26 -18 33 -18 7 0 13 -5 13 -11 0 -5 5 -7 10 -4 6 3 10 0
10 -9 0 -8 8 -13 18 -12 9 2 24 -4 32 -13 8 -9 24 -17 35 -17 11 0 19 -6 17
-13 -1 -7 2 -10 8 -6 5 3 10 1 10 -4 0 -6 3 -10 8 -10 4 1 18 1 31 0 18 -1 22
-5 16 -18 -5 -14 -4 -15 6 -6 10 10 17 9 33 -5 14 -12 17 -13 11 -2 -6 12 -5
13 6 3 7 -7 19 -13 27 -13 8 0 21 -8 29 -17 14 -17 14 -17 9 2 -6 20 -6 20 9
1 8 -11 15 -16 15 -12 0 5 8 2 17 -5 15 -12 16 -12 8 1 -7 12 -6 13 7 3 8 -7
18 -10 21 -6 4 3 7 1 7 -6 0 -8 7 -11 15 -7 8 3 15 2 15 -3 0 -5 11 -7 25 -6
14 2 27 -1 30 -5 3 -5 14 -7 25 -5 11 2 20 0 20 -5 0 -5 9 -7 20 -5 11 2 22 0
25 -4 2 -5 16 -7 30 -6 14 2 25 -1 25 -6 0 -5 11 -4 25 1 14 5 25 6 25 2 0 -4
29 -7 64 -7 36 1 63 -2 60 -6 -2 -4 8 -4 23 -1 16 4 55 7 88 6 33 0 68 4 79 9
13 7 16 6 11 -3 -6 -9 -2 -9 14 -1 15 8 21 9 21 1 0 -6 5 -8 10 -5 6 4 7 11 4
17 -5 7 -2 8 6 3 19 -12 61 -15 54 -4 -3 5 -10 6 -16 3 -7 -4 -8 -2 -4 4 5 8
13 9 25 3 10 -6 23 -6 31 -1 9 5 19 5 26 -1 8 -7 15 -6 20 2 5 8 3 9 -6 4 -9
-5 -11 -4 -6 4 6 9 11 9 21 1 9 -8 14 -7 18 4 4 9 14 12 26 9 14 -3 21 -1 21
8 0 11 2 11 10 -1 8 -12 10 -12 10 -1 0 8 3 11 7 8 3 -4 13 -1 21 6 13 10 14
9 7 -3 -6 -11 -3 -10 12 3 23 20 37 23 27 5 -4 -7 2 -5 14 5 11 11 26 16 31
12 6 -3 11 -1 11 4 0 6 6 10 13 9 6 -2 11 2 10 8 -1 5 10 10 25 10 15 -1 26 4
25 10 -1 5 10 10 25 10 19 -1 26 3 24 14 -2 8 0 12 4 8 4 -4 14 -2 22 5 13 10
14 9 8 -1 -7 -11 -4 -11 13 0 12 7 21 16 21 21 0 4 5 5 10 2 6 -3 10 -1 10 5
0 6 5 8 10 5 6 -3 10 -1 10 6 0 7 3 9 7 6 3 -4 12 1 20 11 8 9 11 11 8 4 -6
-11 -3 -12 14 -3 11 7 21 15 21 19 0 4 27 24 60 46 33 21 57 43 53 49 -3 6 -1
7 5 3 7 -4 24 6 40 22 15 15 33 27 40 24 7 -2 11 2 10 9 -2 7 7 18 20 24 12 5
22 18 22 27 0 10 6 17 13 16 6 -2 11 3 9 10 -1 6 7 12 19 12 11 0 17 5 14 10
-3 6 -1 10 6 10 7 0 10 3 7 6 -3 3 7 19 23 35 16 16 29 37 29 46 0 9 3 13 7
10 10 -10 42 23 37 38 -3 7 2 15 11 19 9 3 13 10 10 16 -3 5 -2 10 4 10 11 0
41 56 41 76 0 7 10 20 22 28 15 11 18 16 8 16 -10 0 -11 3 -4 8 6 4 17 22 25
40 8 17 17 32 20 32 4 0 6 10 5 23 0 12 4 21 9 20 6 -1 11 15 12 34 1 20 6 39
10 42 5 3 8 16 7 29 -1 14 3 21 11 19 6 -3 12 1 12 9 0 9 -6 13 -16 9 -11 -4
-11 -1 3 14 11 12 16 29 13 41 -3 11 1 27 10 35 8 8 10 15 5 15 -6 0 -12 7
-15 14 -4 10 -1 13 9 9 17 -6 18 8 2 26 -11 11 -10 13 0 7 10 -6 12 23 11 138
0 81 -5 146 -10 146 -5 0 -9 5 -9 11 0 5 4 8 8 5 5 -3 9 1 9 9 0 8 -4 12 -9 9
-7 -5 -9 8 -12 78 0 14 -4 24 -7 22 -9 -5 -20 56 -12 69 3 5 1 7 -4 4 -9 -6
-18 19 -23 61 -1 4 -8 14 -16 23 -8 9 -14 20 -12 25 1 5 -4 20 -12 34 -7 14
-14 27 -14 30 -1 3 -4 4 -8 3 -5 -2 -7 0 -6 5 2 4 -6 27 -16 52 -11 25 -19 49
-17 53 1 5 -3 6 -9 2 -5 -3 -13 2 -17 12 -4 10 -15 24 -25 31 -15 11 -16 17
-7 28 9 11 9 14 -1 14 -15 0 -49 40 -50 58 0 7 -4 10 -10 7 -6 -3 -10 4 -10
17 0 18 -2 20 -10 8 -8 -13 -10 -13 -10 1 0 9 -7 20 -16 23 -8 3 -12 10 -9 16
3 5 0 10 -7 10 -16 0 -49 36 -41 44 4 3 0 6 -8 6 -8 0 -25 12 -39 27 -14 15
-19 23 -11 18 9 -5 12 -4 7 3 -4 6 -14 8 -23 5 -13 -5 -15 -2 -10 11 4 11 3
15 -4 11 -5 -4 -18 2 -27 12 -9 11 -25 22 -34 26 -10 3 -18 11 -18 17 0 5 -9
10 -20 10 -11 0 -19 6 -17 13 1 6 -4 11 -11 9 -7 -1 -15 5 -18 13 -3 8 -10 12
-15 9 -5 -3 -12 2 -15 10 -3 9 -10 14 -14 11 -5 -3 -15 2 -23 10 -9 8 -23 15
-31 15 -9 0 -16 8 -16 18 0 14 -2 15 -10 2 -6 -10 -10 -11 -10 -3 0 7 -3 12
-7 12 -21 -3 -33 2 -28 12 4 6 0 9 -11 7 -11 -2 -18 2 -17 8 1 6 -8 10 -20 9
-12 -1 -28 5 -35 14 -8 10 -11 10 -6 2 8 -16 -9 -8 -38 17 -15 13 -18 13 -18
1 -1 -12 -3 -11 -13 1 -13 16 -30 23 -59 24 -10 0 -18 4 -18 9 0 5 -7 6 -15 3
-9 -3 -18 1 -22 9 -5 13 -7 13 -20 -2 -8 -10 -12 -12 -8 -5 3 6 1 12 -5 12 -6
0 -9 4 -6 8 3 5 -13 7 -35 5 -22 -2 -39 1 -39 7 0 7 -6 7 -18 1 -12 -6 -23 -5
-35 4 -10 7 -31 12 -48 11 -16 -1 -29 2 -29 6 0 5 -10 4 -22 -3 -18 -10 -20
-9 -15 5 8 21 -2 20 -20 -1 -8 -12 -12 -13 -11 -4 2 7 -3 16 -11 19 -9 3 -11
0 -6 -8 6 -9 4 -11 -5 -5 -16 10 -270 13 -264 4z m28 -233 c9 3 12 -42 12
-195 0 -110 -4 -197 -9 -194 -4 2 -14 0 -22 -7 -10 -8 -15 -8 -21 1 -5 8 -3 9
6 4 9 -5 11 -4 6 4 -6 9 -13 9 -31 -3 -12 -8 -26 -12 -29 -9 -11 12 -40 12
-52 2 -8 -7 -15 -6 -20 2 -5 8 -3 9 6 4 9 -5 11 -4 6 4 -6 9 -13 9 -31 -3 -12
-8 -26 -12 -29 -9 -11 12 -40 12 -52 2 -8 -7 -15 -6 -20 2 -5 8 -3 9 6 4 9 -5
11 -4 6 4 -6 9 -13 8 -31 -3 -13 -9 -26 -12 -30 -7 -3 5 -16 8 -30 6 -30 -3
-41 10 -26 29 6 7 8 16 4 19 -3 4 -1 7 6 7 8 0 11 7 7 15 -3 8 0 14 7 12 7 -1
11 4 9 11 -1 6 3 12 9 12 6 0 8 7 5 17 -4 10 -4 14 0 10 4 -4 13 1 21 11 8 9
11 11 7 3 -5 -10 -3 -12 5 -7 9 6 9 11 -1 24 -11 13 -11 14 0 8 9 -5 15 -1 19
13 3 11 9 18 14 15 5 -3 9 0 9 6 0 6 15 25 33 43 17 17 31 35 29 40 -1 5 2 6
7 3 5 -4 17 4 25 16 9 12 19 19 23 15 3 -4 15 5 25 20 10 16 18 22 18 16 0 -9
10 -6 32 7 17 10 35 17 40 14 4 -3 8 3 9 13 0 10 3 13 5 6 3 -7 11 -10 18 -7z
m264 -4 c8 -7 18 -10 23 -7 5 4 9 1 9 -4 0 -6 7 -11 15 -11 8 0 15 -5 15 -11
0 -5 4 -8 9 -4 5 3 16 -2 24 -10 9 -8 20 -15 26 -15 6 0 11 -5 11 -11 0 -5 5
-7 12 -3 7 5 8 3 4 -5 -5 -8 0 -14 13 -18 19 -5 26 -15 22 -36 -1 -5 3 -6 9
-2 5 3 10 1 10 -5 0 -6 5 -8 10 -5 6 3 10 0 10 -7 0 -8 8 -21 18 -30 29 -28
41 -46 35 -52 -4 -3 1 -6 10 -6 10 0 17 -7 17 -15 0 -8 9 -24 20 -35 11 -11
18 -20 15 -20 -3 0 -1 -9 5 -20 7 -12 16 -18 23 -13 7 4 7 0 -2 -10 -11 -14
-11 -17 0 -17 11 0 11 -2 -1 -9 -8 -6 -18 -7 -22 -4 -5 2 -15 0 -23 -7 -10 -8
-15 -8 -21 1 -5 8 -3 9 6 4 9 -5 11 -4 6 4 -6 9 -13 9 -31 -3 -12 -8 -26 -12
-29 -9 -11 12 -40 12 -52 2 -8 -7 -15 -6 -20 2 -5 8 -3 9 6 4 9 -5 11 -4 6 4
-6 9 -13 9 -31 -3 -12 -8 -26 -12 -29 -9 -11 12 -40 12 -52 2 -8 -7 -15 -6
-20 2 -5 8 -3 9 6 4 9 -5 11 -4 6 4 -6 9 -13 8 -31 -3 -14 -9 -26 -12 -30 -6
-3 5 -12 7 -19 4 -8 -3 -17 0 -22 7 -4 8 -3 10 4 5 7 -4 12 -2 12 3 0 6 -7 11
-15 11 -16 0 -16 20 0 32 6 5 4 8 -5 8 -13 0 -13 1 0 10 10 6 11 10 3 10 -13
0 -13 26 0 48 5 7 3 12 -4 12 -8 0 -7 5 2 17 8 9 9 14 3 10 -6 -3 -11 1 -11 9
0 9 6 13 16 9 13 -4 13 -2 -1 8 -16 13 -18 43 -3 67 3 6 1 10 -6 10 -8 0 -8 4
1 15 10 12 10 15 -1 15 -11 0 -11 2 1 10 8 5 10 10 4 10 -6 0 -11 7 -11 15 0
8 4 12 9 9 4 -3 8 0 8 5 0 6 -5 11 -11 11 -5 0 -7 5 -4 10 4 6 12 7 18 3 7 -4
6 1 -2 11 -12 14 -12 17 0 14 7 -2 20 -9 27 -16z m-782 -157 c0 -14 -4 -25 -8
-25 -4 0 -8 -7 -8 -15 0 -8 -4 -15 -10 -15 -5 0 -6 -7 -3 -17 4 -10 2 -14 -4
-10 -10 7 -28 -19 -25 -35 1 -5 -2 -8 -8 -8 -5 0 -9 -6 -7 -12 1 -7 -3 -12
-10 -11 -7 2 -10 -3 -7 -10 6 -16 -20 -69 -29 -60 -4 3 -7 2 -7 -4 0 -7 -18
-10 -42 -8 -24 1 -48 -2 -55 -7 -7 -6 -14 -5 -19 3 -5 8 -3 9 6 4 9 -5 11 -4
6 4 -4 6 -12 8 -19 4 -15 -9 -57 -11 -63 -2 -2 4 3 12 11 19 8 7 12 17 8 24
-4 6 1 5 10 -3 16 -12 17 -12 11 5 -4 10 -4 16 0 12 5 -4 18 4 31 17 12 14 25
22 28 19 3 -3 8 4 12 15 4 13 11 18 22 14 11 -4 14 -2 9 5 -4 7 -1 12 9 12 10
0 13 5 9 12 -4 6 -3 8 4 4 6 -3 17 1 25 9 9 8 20 15 26 15 6 0 11 5 11 11 0 5
5 7 10 4 6 -3 10 -1 10 5 0 6 5 8 10 5 6 -3 10 2 11 12 0 12 2 13 6 5 4 -10 9
-8 20 7 18 27 19 26 19 -4z m1274 4 c0 -8 5 -7 16 1 12 11 15 11 12 -1 -2 -9
4 -13 16 -11 11 2 15 -1 11 -7 -5 -9 14 -16 37 -12 4 0 5 -8 3 -18 -2 -10 3
-18 10 -18 8 0 11 5 8 11 -4 6 1 5 10 -3 9 -7 14 -17 11 -22 -3 -5 1 -6 9 -3
8 3 18 0 23 -7 5 -8 3 -10 -6 -4 -9 5 -11 4 -6 -4 4 -6 11 -9 15 -6 12 7 71
-52 63 -61 -4 -5 1 -2 11 5 14 11 17 11 17 -2 0 -9 9 -21 20 -27 12 -6 20 -21
20 -36 0 -14 -4 -23 -10 -19 -6 4 -7 12 -3 18 4 7 -4 5 -17 -4 -27 -17 -54
-14 -43 4 3 7 -2 4 -13 -5 -19 -16 -22 -16 -44 -1 -13 9 -20 11 -16 5 4 -7 -2
-10 -15 -9 -12 1 -26 12 -32 24 -5 12 -13 20 -17 18 -4 -2 -6 9 -5 25 1 16 -2
27 -7 24 -5 -3 -12 3 -15 15 -3 12 -10 21 -15 21 -5 0 -7 4 -3 9 3 6 -3 14
-12 20 -10 6 -13 11 -7 11 6 0 11 7 11 15 0 11 -4 12 -14 4 -7 -6 -13 -9 -13
-5 0 17 -2 23 -16 44 -8 12 -10 22 -4 22 5 0 10 -5 10 -11z m-1461 -434 c9 -5
9 -10 0 -21 -6 -8 -12 -34 -13 -58 0 -24 -5 -44 -10 -43 -5 1 -10 -16 -10 -38
-1 -22 -5 -43 -11 -47 -14 -10 -15 -48 -1 -48 6 0 4 -5 -4 -10 -13 -9 -13 -10
0 -10 13 0 13 -1 0 -10 -8 -5 -11 -12 -7 -16 4 -4 2 -13 -4 -21 -9 -10 -8 -13
1 -13 10 0 10 -3 0 -15 -10 -12 -10 -15 1 -15 8 0 6 -6 -7 -16 -10 -8 -13 -13
-6 -9 19 10 14 -19 -7 -36 -13 -12 -23 -14 -36 -6 -13 7 -16 6 -11 -2 4 -6 2
-11 -3 -11 -6 0 -11 6 -12 13 0 9 -2 9 -6 -1 -2 -6 -9 -10 -14 -6 -17 10 -50
13 -44 3 9 -14 -8 -11 -33 7 -20 14 -23 14 -28 0 -3 -9 -10 -13 -15 -10 -17
10 -50 13 -44 3 9 -13 -9 -11 -24 4 -8 6 -11 7 -8 2 3 -6 -5 -10 -21 -9 -15 1
-32 3 -38 3 -7 1 -15 8 -18 17 -3 8 -2 12 3 9 6 -3 8 12 6 35 -3 29 0 38 8 34
9 -5 9 -3 0 6 -10 11 -9 16 5 27 10 9 11 12 2 7 -12 -6 -13 -5 -4 7 6 8 10 22
9 32 -2 9 1 17 6 17 6 0 7 5 4 10 -4 6 -1 17 5 25 6 8 13 26 15 41 1 14 9 30
16 35 7 4 10 11 6 15 -3 4 3 15 15 25 14 13 16 19 7 19 -8 0 -10 3 -4 8 18 13
36 53 29 64 -4 6 -3 9 2 6 5 -3 17 -3 27 1 23 8 262 5 276 -4z m716 -212 c0
-122 -4 -225 -9 -230 -5 -5 -6 -3 -2 5 4 6 2 12 -3 12 -6 0 -11 -4 -11 -8 0
-9 -59 -7 -102 2 -20 5 -30 1 -37 -11 -10 -17 -10 -17 -11 0 0 9 -4 17 -10 17
-5 0 -14 -8 -19 -17 -10 -17 -10 -17 -11 0 0 9 -4 17 -10 17 -5 0 -14 -8 -19
-17 -10 -17 -10 -17 -11 0 0 9 -4 17 -10 17 -5 0 -14 -8 -19 -17 -10 -17 -10
-17 -11 0 0 9 -4 17 -10 17 -5 0 -14 -8 -19 -17 -10 -17 -10 -17 -11 0 0 9 -4
17 -10 17 -5 0 -14 -8 -19 -17 -10 -17 -10 -17 -11 0 0 9 -4 17 -10 17 -5 0
-14 -8 -19 -17 -10 -17 -10 -17 -11 0 0 22 -19 22 -27 0 -5 -13 -8 -12 -15 8
l-9 24 -14 -25 c-11 -19 -14 -21 -15 -7 0 9 -4 17 -10 17 -5 0 -14 -8 -19 -17
-10 -17 -10 -17 -11 0 0 9 -5 17 -11 17 -5 0 -7 -5 -3 -12 4 -7 3 -8 -5 -4 -6
4 -9 11 -6 16 3 4 -1 10 -7 13 -10 3 -10 7 1 20 9 12 10 17 2 17 -9 0 -9 5 -1
20 8 15 8 20 -2 20 -10 0 -10 2 -1 8 7 4 14 29 15 55 2 26 7 47 11 47 4 0 4 8
-1 17 -10 17 2 50 23 65 6 5 5 8 -3 8 -9 0 -10 5 -4 18 5 9 7 23 5 30 -3 6 3
12 14 13 11 0 13 3 5 6 -10 4 -10 8 -1 19 6 8 8 14 4 14 -4 0 -1 8 6 17 12 15
12 16 -1 8 -12 -7 -13 -6 -3 6 9 11 55 14 255 14 l244 0 -1 -222z m705 207 c5
-8 7 -17 4 -21 -2 -4 0 -9 5 -11 6 -1 12 -16 15 -33 2 -16 5 -31 6 -32 2 -2 4
-7 5 -13 1 -5 3 -11 5 -12 1 -2 3 -11 5 -21 2 -11 -1 -15 -8 -10 -8 5 -8 2 0
-9 7 -8 10 -18 6 -21 -3 -4 -2 -7 3 -7 5 0 9 -12 8 -27 -1 -16 3 -36 8 -47 7
-13 7 -16 -1 -12 -14 9 -1 -26 13 -36 8 -5 7 -8 -1 -8 -9 0 -10 -7 -3 -25 6
-17 6 -25 -1 -25 -6 0 -7 -6 -2 -12 22 -37 -2 -67 -38 -48 -14 8 -19 8 -15 1
4 -6 2 -11 -3 -11 -6 0 -11 6 -11 13 0 9 -2 9 -8 0 -5 -8 -13 -9 -22 -3 -9 5
-19 5 -27 -1 -8 -7 -19 -7 -34 1 -14 8 -19 8 -15 1 4 -6 2 -11 -3 -11 -6 0
-11 6 -11 13 0 9 -2 9 -8 0 -5 -8 -13 -9 -22 -3 -9 5 -19 5 -27 -1 -8 -7 -19
-7 -34 1 -14 8 -19 8 -15 1 4 -6 2 -11 -3 -11 -6 0 -11 6 -11 13 0 9 -2 9 -8
0 -5 -8 -13 -9 -22 -3 -9 5 -19 5 -27 -1 -8 -7 -19 -7 -34 1 -14 8 -19 8 -15
1 4 -6 2 -11 -3 -11 -6 0 -11 6 -12 13 0 9 -2 9 -6 0 -3 -9 -10 -10 -23 -3
-12 7 -21 7 -25 0 -3 -5 -16 -8 -28 -6 -12 3 -28 5 -35 5 -7 1 -10 6 -7 11 3
6 1 10 -4 10 -13 0 -10 22 4 32 6 5 4 8 -5 8 -13 0 -13 1 0 10 10 6 11 10 3
10 -13 0 -13 26 0 48 5 7 3 12 -4 12 -8 0 -7 5 2 17 8 9 9 14 3 10 -6 -3 -11
1 -11 9 0 9 6 13 16 9 13 -4 13 -2 -1 8 -16 13 -18 43 -3 67 3 6 1 10 -6 10
-8 0 -8 4 1 15 10 12 10 15 -1 15 -11 0 -11 2 1 10 12 8 12 10 1 10 -11 0 -11
3 -1 15 10 12 10 15 0 15 -10 0 -10 3 0 15 10 12 10 15 -1 15 -11 0 -11 2 1
10 8 5 10 10 3 10 -6 0 -10 8 -8 18 1 9 8 16 14 15 6 -2 11 0 11 5 0 4 104 7
231 6 185 0 232 -3 239 -14z m521 -1 c5 -8 7 -20 4 -27 -3 -7 -1 -11 4 -8 5 3
15 -2 22 -11 12 -14 12 -16 -1 -9 -11 6 -11 4 1 -6 9 -7 16 -15 16 -18 0 -16
17 -56 27 -62 7 -5 6 -8 -4 -8 -12 0 -12 -2 -2 -9 7 -4 14 -18 15 -29 1 -12 8
-22 17 -23 10 0 11 -2 3 -6 -9 -3 -10 -10 -3 -23 6 -11 9 -25 8 -32 -2 -7 2
-12 7 -11 6 1 10 -17 9 -40 0 -23 5 -46 10 -50 8 -6 7 -10 -1 -13 -8 -4 -9
-13 -4 -28 8 -18 5 -22 -12 -24 -17 -1 -19 1 -7 8 9 6 10 10 3 10 -7 0 -17 -8
-22 -17 -10 -17 -10 -17 -11 0 0 9 -4 17 -10 17 -5 0 -14 -8 -19 -17 -10 -17
-10 -17 -11 0 0 9 -4 17 -10 17 -5 0 -14 -8 -19 -17 -10 -17 -10 -17 -11 0 0
9 -4 17 -10 17 -5 0 -14 -8 -19 -17 -10 -17 -10 -17 -11 0 0 9 -4 17 -10 17
-5 0 -14 -8 -19 -17 -9 -15 -10 -16 -11 -2 0 9 -7 16 -15 16 -8 0 -11 -5 -8
-10 4 -7 -1 -8 -13 -3 -32 13 -55 15 -49 5 9 -13 -9 -11 -23 3 -9 9 -12 9 -12
0 0 -6 -7 -9 -16 -5 -13 5 -13 7 -2 14 10 7 10 9 -2 9 -9 0 -16 9 -17 21 -2
18 0 19 15 7 14 -11 14 -9 -1 8 -10 12 -17 25 -16 30 1 5 1 31 0 57 -1 35 -4
46 -13 41 -10 -6 -10 -4 0 7 6 7 12 17 12 22 0 4 -6 5 -12 1 -8 -5 -7 0 2 11
12 15 12 17 1 10 -11 -6 -13 -4 -8 8 3 9 2 19 -4 23 -6 4 -6 11 2 20 9 11 8
14 -7 14 -14 0 -15 3 -6 12 15 15 16 32 1 22 -7 -4 -10 3 -9 17 1 13 1 27 0
32 -4 13 -7 27 -9 38 0 5 -5 7 -11 4 -5 -3 -10 -4 -10 0 0 15 50 20 171 19
100 -1 133 -5 140 -15z m-2186 -429 c3 -5 1 -10 -4 -10 -6 0 -11 5 -11 10 0 6
2 10 4 10 3 0 8 -4 11 -10z m100 -195 c66 1 91 -5 73 -16 -10 -7 -10 -9 0 -9
6 0 12 -7 12 -16 0 -9 -5 -12 -12 -8 -10 6 -10 5 -1 -7 7 -9 14 -37 14 -62 2
-30 6 -44 13 -40 7 4 7 1 -1 -8 -15 -19 -17 -30 -4 -38 5 -4 11 -28 12 -54 2
-26 6 -47 9 -47 4 0 7 -6 8 -12 8 -76 11 -93 20 -91 15 3 2 -35 -15 -41 -7 -3
-12 -2 -9 2 3 5 -1 9 -9 9 -8 0 -12 -4 -9 -9 10 -15 -14 -8 -32 10 -17 16 -18
16 -11 0 3 -10 2 -18 -3 -18 -6 0 -10 6 -11 13 0 9 -2 9 -6 -1 -2 -6 -9 -10
-14 -6 -17 10 -50 13 -44 3 9 -13 -9 -11 -24 4 -11 10 -12 9 -6 -2 6 -10 4
-12 -4 -6 -7 4 -31 7 -52 7 -22 -1 -38 2 -35 6 4 8 -20 33 -26 27 -2 -2 -5 6
-5 18 -1 12 -7 23 -13 25 -5 2 -10 13 -10 23 0 13 -4 18 -12 13 -7 -4 -8 -3
-4 4 4 6 1 22 -6 34 -13 23 -15 29 -17 61 -1 11 -6 15 -13 11 -8 -5 -9 -2 -5
9 3 9 2 19 -3 22 -6 4 -10 11 -10 16 0 6 6 7 13 3 8 -6 8 -3 -1 9 -8 9 -11 21
-7 27 3 5 1 10 -5 10 -6 0 -8 5 -5 10 3 6 2 10 -3 10 -5 0 -8 14 -6 30 2 17
-1 30 -7 30 -7 0 -6 6 2 17 10 11 10 14 2 9 -7 -4 -13 -3 -13 2 0 15 27 18
133 17 59 0 97 4 97 10 0 7 3 7 8 0 4 -5 30 -10 57 -10z m580 -1 c22 0 48 3
59 9 10 5 16 5 13 0 -3 -5 39 -9 101 -8 l108 2 0 -221 c0 -223 -4 -248 -35
-223 -12 9 -13 9 -7 0 8 -15 5 -16 -18 -7 -9 3 -13 11 -9 17 3 6 1 7 -6 3 -6
-4 -9 -12 -6 -17 4 -5 1 -9 -4 -9 -6 0 -11 6 -12 13 0 9 -2 9 -6 -1 -2 -6 -9
-10 -14 -6 -17 10 -50 13 -44 3 9 -14 -8 -11 -33 7 -20 14 -23 14 -28 0 -3 -9
-10 -13 -15 -10 -17 10 -50 13 -44 3 9 -14 -8 -11 -33 7 -20 14 -23 14 -28 0
-3 -9 -10 -13 -15 -10 -17 10 -50 13 -44 3 9 -13 -9 -11 -24 4 -9 7 -12 8 -7
0 4 -7 -1 -9 -15 -6 -12 4 -25 0 -30 -8 -8 -12 -9 -11 -7 1 1 8 -3 25 -10 38
-7 12 -9 22 -5 22 4 0 2 4 -5 9 -8 5 -14 25 -15 44 -1 21 -7 39 -15 42 -11 4
-12 8 -2 20 10 12 9 15 -6 15 -16 0 -17 2 -4 10 12 8 13 13 2 30 -10 16 -10
20 0 20 9 0 8 3 -2 10 -8 5 -11 10 -7 10 4 0 3 10 -4 21 -8 16 -8 20 1 14 9
-6 9 -2 1 14 -7 11 -8 21 -4 21 4 0 1 5 -7 10 -13 8 -12 10 4 10 19 0 19 0 1
13 -12 10 -15 16 -6 21 8 5 8 13 1 26 -16 30 12 37 127 36 62 -1 99 2 96 8 -4
5 -1 6 8 0 8 -4 32 -9 54 -10z m800 0 c22 0 48 3 59 9 10 5 16 5 13 0 -3 -5
33 -8 81 -8 48 1 92 0 98 -2 12 -4 13 -51 1 -70 -5 -8 -4 -13 2 -13 7 0 7 -8
0 -27 -7 -19 -6 -28 1 -33 8 -5 6 -9 -5 -14 -15 -5 -15 -9 -4 -23 10 -12 11
-15 1 -9 -9 6 -11 1 -8 -18 3 -14 1 -26 -3 -26 -4 0 -7 -12 -8 -27 -1 -47 -3
-54 -10 -50 -5 3 -9 -13 -10 -34 0 -22 -6 -46 -12 -53 -7 -8 -10 -20 -9 -27 2
-8 -5 -13 -14 -13 -10 1 -18 -3 -18 -10 0 -6 -5 -4 -10 4 -5 8 -10 10 -10 4 0
-12 -69 -12 -89 1 -10 5 -12 4 -7 -3 4 -7 2 -12 -3 -12 -6 0 -11 6 -12 13 0 9
-2 9 -5 0 -3 -7 -12 -9 -20 -6 -7 3 -11 10 -7 16 3 6 1 7 -6 3 -6 -4 -8 -12
-5 -18 5 -8 1 -9 -12 -4 -32 13 -55 15 -49 5 9 -14 -8 -11 -33 7 -20 14 -23
14 -28 0 -3 -9 -10 -13 -15 -10 -17 10 -50 13 -44 3 9 -14 -8 -11 -33 7 -19
13 -23 13 -28 1 -6 -17 -40 -15 -36 2 1 6 -2 11 -8 11 -12 0 -9 22 5 32 6 5 4
8 -5 8 -13 0 -13 1 0 10 10 6 11 10 3 10 -13 0 -13 26 0 48 5 7 3 12 -4 12 -8
0 -7 5 2 17 8 9 9 14 3 10 -6 -3 -11 1 -11 9 0 9 6 13 16 9 13 -4 13 -2 -1 8
-16 13 -18 43 -3 67 3 6 1 10 -6 10 -8 0 -8 4 1 15 10 12 10 15 -1 15 -11 0
-11 2 1 10 12 8 12 10 1 10 -11 0 -11 3 -1 15 10 12 10 15 0 15 -10 0 -10 3 0
15 10 12 10 15 -1 15 -11 0 -11 2 1 10 12 8 12 10 1 10 -11 0 -11 3 0 17 12
14 12 16 -1 9 -9 -5 -9 -2 2 7 13 10 47 13 132 12 70 0 112 3 109 9 -4 5 -1 6
8 0 8 -4 32 -9 54 -10z m774 9 c11 9 13 9 8 0 -6 -9 2 -11 28 -9 20 2 34 1 31
-2 -3 -3 0 -12 7 -20 10 -13 9 -14 -2 -7 -11 6 -13 4 -8 -8 3 -9 2 -19 -3 -22
-5 -3 -7 -21 -6 -40 2 -19 0 -33 -4 -30 -4 3 -11 -2 -14 -11 -4 -9 -2 -13 5
-8 8 4 7 0 0 -15 -7 -12 -9 -26 -6 -31 3 -6 1 -10 -5 -10 -6 0 -8 -4 -5 -10 3
-5 1 -10 -6 -10 -6 0 -9 -8 -6 -20 3 -11 1 -20 -4 -20 -5 0 -8 -3 -7 -7 1 -5
-3 -18 -10 -31 -7 -12 -10 -28 -6 -34 4 -7 3 -8 -4 -4 -7 4 -14 -3 -18 -19 -3
-14 -10 -25 -14 -25 -4 0 -11 -7 -14 -16 -4 -9 -2 -13 5 -8 8 4 7 0 0 -15 -7
-11 -14 -21 -17 -21 -3 0 -2 4 1 10 3 6 -1 7 -9 4 -9 -3 -13 -10 -10 -15 9
-16 -14 -10 -32 9 -17 16 -18 16 -11 0 3 -10 2 -18 -3 -18 -6 0 -10 6 -11 13
0 9 -2 9 -6 -1 -2 -6 -9 -10 -14 -6 -18 11 -50 13 -43 2 4 -7 -1 -8 -16 -3
-41 13 -55 12 -67 -4 -10 -14 -12 -12 -8 9 4 22 3 23 -9 8 -10 -14 -15 -15
-26 -5 -7 7 -10 7 -7 1 3 -6 0 -11 -7 -11 -12 0 -15 23 -5 42 3 6 5 17 4 25 0
8 4 18 9 22 5 4 11 23 11 42 1 20 5 39 8 43 4 3 2 12 -4 20 -9 9 -8 13 0 13 6
0 10 6 8 13 -1 6 5 11 13 10 12 -2 12 0 -2 9 -15 11 -15 13 0 26 9 7 12 11 6
8 -7 -3 -15 1 -18 10 -3 8 -2 12 4 9 9 -5 15 87 8 98 -2 2 4 12 12 22 9 11 10
16 3 11 -7 -4 -13 -3 -13 3 0 21 39 28 157 27 81 -1 120 2 116 9 -3 5 0 4 7
-2 11 -10 17 -10 29 0z m-1614 -453 c3 -5 1 -10 -4 -10 -6 0 -11 5 -11 10 0 6
2 10 4 10 3 0 8 -4 11 -10z m120 0 c3 -5 1 -10 -4 -10 -6 0 -11 5 -11 10 0 6
2 10 4 10 3 0 8 -4 11 -10z m480 0 c3 -5 1 -10 -4 -10 -6 0 -11 5 -11 10 0 6
2 10 4 10 3 0 8 -4 11 -10z m120 0 c3 -5 1 -10 -4 -10 -6 0 -11 5 -11 10 0 6
2 10 4 10 3 0 8 -4 11 -10z m-1090 -190 c-4 -7 3 -9 20 -6 18 3 28 0 32 -12 4
-9 13 -23 20 -30 6 -7 9 -20 6 -29 -4 -11 -3 -14 5 -9 7 4 12 1 12 -8 0 -32
19 -58 34 -48 5 3 6 0 3 -6 -10 -15 3 -43 17 -35 6 3 8 3 4 -2 -4 -4 -2 -15 4
-23 15 -17 19 -42 8 -42 -5 0 -10 4 -12 9 -1 5 -12 11 -23 13 -11 1 -31 14
-44 28 -13 14 -20 19 -17 13 5 -9 2 -11 -8 -7 -9 3 -14 10 -11 14 3 4 -5 10
-16 13 -12 3 -18 10 -14 16 3 7 0 8 -9 5 -10 -4 -16 -1 -16 7 0 7 -3 9 -7 6
-3 -4 -13 2 -20 13 -8 11 -19 18 -24 15 -5 -4 -9 1 -9 9 0 8 -5 18 -12 22 -7
5 -8 3 -3 -7 5 -8 -10 4 -32 26 -22 22 -36 43 -31 46 5 3 33 5 62 4 30 -1 60
2 68 6 17 11 20 11 13 -1z m555 -6 c63 -1 120 -2 126 -3 13 -1 13 -339 0 -360
-6 -10 -6 -12 2 -7 7 4 12 3 12 -2 0 -18 -27 -20 -61 -5 -70 31 -78 36 -73 45
3 4 -3 8 -14 8 -11 0 -27 11 -38 24 -10 14 -21 23 -25 20 -4 -2 -10 5 -14 16
-3 11 -12 19 -18 17 -7 -1 -11 4 -9 11 1 6 -5 12 -14 12 -8 0 -12 5 -9 10 3 6
-1 10 -10 10 -9 0 -13 5 -10 10 3 6 -1 13 -9 16 -9 3 -16 12 -16 20 0 8 -4 14
-10 14 -5 0 -10 7 -10 15 0 9 -7 18 -15 21 -9 4 -14 14 -13 23 2 9 -3 15 -10
13 -8 -1 -11 2 -6 9 3 6 2 14 -3 18 -6 3 -13 15 -17 26 -6 19 -2 21 55 20 33
0 63 3 65 7 3 5 11 5 17 1 7 -4 64 -8 127 -9z m665 7 c-3 -6 11 -9 34 -7 22 2
46 -1 53 -5 9 -6 10 -9 1 -9 -7 0 -10 -7 -6 -17 4 -11 3 -14 -5 -9 -7 4 -13 2
-13 -3 -4 -32 -20 -62 -30 -55 -8 5 -13 -10 -10 -29 1 -4 -6 -10 -14 -13 -8
-4 -15 -12 -15 -20 0 -7 -9 -18 -20 -24 -11 -6 -18 -15 -16 -19 3 -5 -8 -19
-24 -31 -16 -12 -27 -28 -23 -34 3 -6 3 -8 -2 -4 -5 5 -14 -1 -22 -12 -8 -11
-20 -20 -28 -20 -7 0 -15 -5 -17 -11 -2 -5 -11 -11 -20 -13 -10 -1 -21 -6 -25
-11 -4 -4 -1 -5 7 0 12 6 12 5 4 -5 -7 -6 -23 -13 -37 -13 -14 -1 -23 -5 -21
-9 6 -9 -34 -21 -46 -13 -5 3 -10 0 -10 -7 0 -10 -3 -9 -9 1 -6 9 -6 22 0 33
7 13 6 18 -2 18 -8 0 -8 4 1 15 10 12 10 15 -1 15 -11 0 -11 2 1 10 10 6 11
10 3 10 -13 0 -13 26 0 48 5 7 3 12 -4 12 -8 0 -7 5 2 17 8 9 9 14 3 10 -6 -3
-11 1 -11 9 0 9 6 13 16 9 13 -4 13 -3 -1 8 -16 13 -17 54 -2 79 3 4 0 8 -5 8
-13 0 -10 22 4 32 6 5 5 8 -4 8 -11 0 -11 3 -1 15 10 12 10 15 0 15 -8 0 -10
3 -6 7 4 4 74 8 156 8 82 1 152 4 156 8 10 10 16 9 9 -2z m520 -18 c2 -7 1
-13 -4 -13 -4 0 -24 -15 -43 -32 -20 -18 -45 -39 -56 -47 -12 -8 -19 -18 -16
-23 3 -5 2 -8 -3 -7 -21 4 -43 -2 -40 -10 1 -5 -1 -9 -6 -10 -7 -1 -21 -11
-52 -39 -8 -7 -24 -14 -34 -15 -11 0 -19 -6 -18 -12 1 -5 -6 -9 -17 -7 -10 2
-16 -1 -12 -6 3 -5 -1 -9 -8 -9 -8 0 -13 7 -11 16 1 9 9 15 17 15 10 -1 14 5
11 17 -3 11 0 19 8 19 7 0 9 3 6 6 -4 4 3 15 15 25 14 13 17 19 7 20 -10 0
-11 2 -1 6 6 2 12 11 12 18 0 7 5 15 10 17 6 2 12 13 13 25 0 12 6 21 11 20 6
-1 11 5 12 13 0 8 2 17 2 21 1 3 45 5 97 5 66 -1 96 -5 100 -13z"/>
<path d="M3051 2554 c0 -11 3 -14 6 -6 3 7 2 16 -1 19 -3 4 -6 -2 -5 -13z"/>
<path d="M1986 1922 c-3 -5 1 -9 9 -9 8 0 12 4 9 9 -3 4 -7 8 -9 8 -2 0 -6 -4
-9 -8z"/>
<path d="M2470 3149 c0 -5 5 -7 10 -4 6 3 10 8 10 11 0 2 -4 4 -10 4 -5 0 -10
-5 -10 -11z"/>
</g>
</svg>
